<svg xmlns="http://www.w3.org/2000/svg" width="970" height="96" viewBox="0 0 970 96" role="img" aria-label="Krakken-2048 Bounds">
  <title>Krakken-2048 Bounds</title>
  <defs>
    <linearGradient id="g" x1="0" y1="0" x2="1" y2="1">
      <stop offset="0%" stop-color="#00FFCC"/>
      <stop offset="55%" stop-color="#1FB6FF"/>
      <stop offset="100%" stop-color="#8A2BE2"/>
    </linearGradient>
    <filter id="glow" x="-30%" y="-30%" width="160%" height="160%">
      <feGaussianBlur stdDeviation="3" result="b"/>
      <feMerge><feMergeNode in="b"/><feMergeNode in="SourceGraphic"/></feMerge>
    </filter>
  </defs>
  <g fill="url(#g)" filter="url(#glow)">
    <path d="M57 0 L57 720 L139 720 L139 401 L371 401 L639 720 L743 720 L743 719 L442 360 L744 1 L744 0 L639 0 L371 319 L139 319 L139 0 L57 0 Z" transform="translate(36.00,70.0) scale(0.05104,-0.05104)"/>
    <path d="M664 0 L429 280 L535 280 L771 1 L771 0 L664 0 M56 0 L56 719 L656 719 Q689 719 716 702 Q744 686 760 659 Q776 632 776 599 L776 388 Q776 355 760 328 Q744 301 716 284 Q689 268 656 268 L137 268 L137 0 L56 0 M176 350 L656 350 Q672 350 683 361 Q695 372 695 388 L695 599 Q695 615 683 626 Q672 638 656 638 L176 638 Q160 638 148 626 Q137 615 137 599 L137 388 Q137 372 148 361 Q160 350 176 350 Z" transform="translate(84.68,70.0) scale(0.05104,-0.05104)"/>
    <path d="M58 0 L58 600 Q58 633 74 660 Q90 688 117 704 Q145 720 178 720 L658 720 Q691 720 718 704 Q746 688 762 660 Q778 633 778 600 L778 0 L697 0 L697 263 L139 263 L139 0 L58 0 L58 0 M139 344 L697 344 L697 600 Q697 616 685 627 Q674 639 658 639 L178 639 Q162 639 150 627 Q139 616 139 600 L139 344 L139 344 Z" transform="translate(134.78,70.0) scale(0.05104,-0.05104)"/>
    <path d="M57 0 L57 720 L139 720 L139 401 L371 401 L639 720 L743 720 L743 719 L442 360 L744 1 L744 0 L639 0 L371 319 L139 319 L139 0 L57 0 Z" transform="translate(185.45,70.0) scale(0.05104,-0.05104)"/>
    <path d="M57 0 L57 720 L139 720 L139 401 L371 401 L639 720 L743 720 L743 719 L442 360 L744 1 L744 0 L639 0 L371 319 L139 319 L139 0 L57 0 Z" transform="translate(234.12,70.0) scale(0.05104,-0.05104)"/>
    <path d="M58 0 L58 720 L715 720 L715 639 L139 639 L139 401 L602 401 L602 319 L139 319 L139 81 L715 81 L715 0 L58 0 Z" transform="translate(282.80,70.0) scale(0.05104,-0.05104)"/>
    <path d="M56 0 L56 720 L167 720 L695 92 L695 720 L776 720 L776 0 L665 0 L137 628 L137 0 L56 0 Z" transform="translate(329.89,70.0) scale(0.05104,-0.05104)"/>
    <path d="M59 255 L59 255 L59 337 L449 337 L449 255 L59 255 Z" transform="translate(380.36,70.0) scale(0.05104,-0.05104)"/>
    <path d="M57 0 L57 0 L57 270 Q57 304 73 331 Q89 359 116 375 Q144 391 178 391 L663 391 Q679 391 690 402 Q702 414 702 430 L702 599 Q702 615 690 626 Q679 638 663 638 L178 638 Q162 638 150 626 Q139 615 139 599 L139 571 L57 571 L57 599 Q57 633 73 660 Q89 688 116 704 Q144 721 178 721 L663 721 Q696 721 723 704 Q751 688 767 660 Q784 633 784 599 L784 430 Q784 397 767 369 Q751 342 723 325 Q696 309 663 309 L178 309 Q162 309 150 297 Q139 286 139 270 L139 121 Q139 105 150 93 Q162 82 178 82 L784 82 L784 0 L57 0 Z" transform="translate(414.74,70.0) scale(0.05104,-0.05104)"/>
    <path d="M178 0 Q144 0 116 16 Q89 33 73 60 Q57 88 57 121 L57 598 Q57 632 73 659 Q89 687 116 703 Q144 720 178 720 L663 720 Q696 720 723 703 Q751 687 767 659 Q784 632 784 598 L784 121 Q784 88 767 60 Q751 33 723 16 Q696 0 663 0 L178 0 L178 0 M149 82 L149 82 L663 82 Q679 82 690 93 Q702 105 702 121 L702 538 L149 82 M139 181 L139 181 L691 637 L178 637 Q162 637 150 625 Q139 614 139 598 L139 181 Z" transform="translate(465.10,70.0) scale(0.05104,-0.05104)"/>
    <path d="M508 0 L508 0 L508 186 L6 186 L6 278 L498 721 L590 721 L590 268 L702 268 L702 186 L590 186 L590 0 L508 0 M111 268 L111 268 L508 268 L508 610 L111 268 Z" transform="translate(515.67,70.0) scale(0.05104,-0.05104)"/>
    <path d="M178 0 Q144 0 116 16 Q89 33 73 60 Q57 88 57 121 L57 291 Q57 311 65 331 Q73 352 87 371 Q73 390 65 411 Q57 432 57 452 L57 599 Q57 633 73 660 Q89 688 116 704 Q144 721 178 721 L663 721 Q691 721 715 706 Q740 692 758 668 Q777 645 784 619 L784 452 Q784 412 754 371 Q784 332 784 291 L784 121 Q784 88 767 60 Q751 33 723 16 Q696 0 663 0 L178 0 L178 0 M178 82 L178 82 L663 82 Q679 82 690 93 Q702 105 702 121 L702 291 Q702 307 690 318 Q679 330 663 330 L178 330 Q162 330 150 318 Q139 307 139 291 L139 121 Q139 105 150 93 Q162 82 178 82 M178 401 L178 401 L663 401 Q679 401 690 412 Q702 424 702 440 L702 598 Q702 614 690 625 Q679 637 663 637 L178 637 Q162 637 150 625 Q139 614 139 598 L139 440 Q139 424 150 412 Q162 401 178 401 Z" transform="translate(560.93,70.0) scale(0.05104,-0.05104)"/>
    <path d="M59 0 L59 720 L628 720 Q661 720 688 704 Q716 688 732 660 Q748 633 748 600 L748 447 Q748 433 744 419 Q741 406 735 394 Q757 361 768 337 Q779 313 779 288 L779 120 Q779 87 763 59 Q747 32 719 16 Q692 0 659 0 L59 0 L59 0 M179 81 L659 81 Q675 81 686 92 Q698 104 698 120 L698 288 Q698 304 686 315 Q675 327 659 327 L179 327 Q163 327 151 315 Q140 304 140 288 L140 120 Q140 104 151 92 Q163 81 179 81 M179 408 L628 408 Q644 408 655 419 Q666 431 666 447 L666 600 Q666 616 655 627 Q644 639 628 639 L179 639 Q163 639 151 627 Q140 616 140 600 L140 447 Q140 431 151 419 Q163 408 179 408 Z" transform="translate(640.29,70.0) scale(0.05104,-0.05104)"/>
    <path d="M174 0 Q141 0 113 16 Q86 32 70 59 Q54 87 54 120 L54 600 Q54 633 70 660 Q86 688 113 704 Q141 720 174 720 L654 720 Q687 720 714 704 Q742 688 758 660 Q774 633 774 600 L774 120 Q774 87 758 59 Q742 32 714 16 Q687 0 654 0 L174 0 M174 81 L654 81 Q670 81 681 92 Q693 104 693 120 L693 600 Q693 616 681 627 Q670 639 654 639 L174 639 Q158 639 146 627 Q135 616 135 600 L135 120 Q135 104 146 92 Q158 81 174 81 Z" transform="translate(690.75,70.0) scale(0.05104,-0.05104)"/>
    <path d="M174 0 Q141 0 113 16 Q86 32 70 59 Q54 87 54 120 L54 720 L135 720 L135 120 Q135 104 146 92 Q158 81 174 81 L654 81 Q670 81 681 92 Q693 104 693 120 L693 720 L774 720 L774 120 Q774 87 758 59 Q742 32 714 16 Q687 0 654 0 L174 0 L174 0 Z" transform="translate(741.01,70.0) scale(0.05104,-0.05104)"/>
    <path d="M56 0 L56 720 L167 720 L695 92 L695 720 L776 720 L776 0 L665 0 L137 628 L137 0 L56 0 Z" transform="translate(791.27,70.0) scale(0.05104,-0.05104)"/>
    <path d="M58 0 L58 720 L658 720 Q691 720 718 704 Q746 688 762 660 Q778 633 778 600 L778 120 Q778 87 762 59 Q746 32 718 16 Q691 0 658 0 L58 0 M178 81 L658 81 Q674 81 685 92 Q697 104 697 120 L697 600 Q697 616 685 627 Q674 639 658 639 L178 639 Q162 639 150 627 Q139 616 139 600 L139 120 Q139 104 150 92 Q162 81 178 81 Z" transform="translate(841.73,70.0) scale(0.05104,-0.05104)"/>
    <path d="M171 0 Q138 0 110 16 Q83 32 67 59 Q51 87 51 120 L51 148 L132 148 L132 120 Q132 104 143 92 Q155 81 171 81 L651 81 Q667 81 678 92 Q690 104 690 120 L690 281 Q690 297 678 308 Q667 319 651 319 L171 319 Q138 319 110 335 Q83 352 67 379 Q51 406 51 439 L51 600 Q51 633 67 660 Q83 688 110 704 Q138 720 171 720 L651 720 Q684 720 711 704 Q739 688 755 660 Q771 633 771 600 L771 572 L690 572 L690 600 Q690 616 678 627 Q667 639 651 639 L171 639 Q155 639 143 627 Q132 616 132 600 L132 439 Q132 423 143 412 Q155 401 171 401 L651 401 Q684 401 711 384 Q739 368 755 341 Q771 314 771 281 L771 120 Q771 87 755 59 Q739 32 711 16 Q684 0 651 0 L171 0 Z" transform="translate(892.30,70.0) scale(0.05104,-0.05104)"/>
  </g>
</svg>
